<?xml version="1.0" encoding="UTF-8"?>
<svg id="Camada_2" data-name="Camada 2" xmlns="http://www.w3.org/2000/svg" width="126.51" height="125.43" viewBox="0 0 126.51 125.43">
  <g id="Camada_1-2" data-name="Camada 1">
    <g>
      <path d="m62.72,0C28.08,0,0,28.08,0,62.72s28.08,62.72,62.72,62.72c14.61,0,28.05-4.99,38.71-13.37-8.12,4.52-17.47,7.1-27.42,7.1-31.17,0-56.44-25.27-56.44-56.44S42.83,6.27,74.01,6.27c9.95,0,19.3,2.57,27.42,7.1C90.76,4.99,77.32,0,62.72,0h0Z" fill="#d14124" fill-rule="evenodd" stroke-width="0"/>
      <path d="m76.34,112.89c27.71,0,50.17-22.46,50.17-50.17S104.05,12.54,76.34,12.54c-11.69,0-22.44,3.99-30.97,10.69,6.5-3.62,13.97-5.68,21.94-5.68,24.94,0,45.16,20.22,45.16,45.16s-20.22,45.16-45.16,45.16c-7.96,0-15.44-2.06-21.94-5.68,8.53,6.7,19.28,10.69,30.97,10.69h0Z" fill="#d14124" fill-rule="evenodd" stroke-width="0"/>
      <path d="m38.4,48.1c2.45.06,3.68,1.25,3.69,3.58l-.02,18.31h14.51c2.45.01,3.67,1.25,3.67,3.7s-1.2,3.6-3.6,3.63h-18.24c-2.42,0-3.63-1.18-3.65-3.54v-21.99c.01-2.42,1.23-3.65,3.65-3.69h0Z" fill="#ea7600" fill-rule="evenodd" stroke-width="0"/>
      <path d="m89.9,48.58c-.59-.32-1.18-.48-1.79-.48s-1.22.16-1.8.48c-.58.32-1.03.77-1.36,1.36-.33.59-2.93,5.86-7.81,15.82-4.84-9.96-7.42-15.23-7.74-15.82-.33-.59-.78-1.04-1.37-1.36-.59-.32-1.18-.48-1.79-.48s-1.22.16-1.8.48c-.58.32-1.03.77-1.36,1.36-.33.59-.49,1.19-.49,1.81s1.82,4.62,5.45,11.93,5.61,11.26,5.93,11.84c.32.58.77,1.03,1.36,1.35.59.32,1.19.48,1.81.48s1.25-.16,1.82-.48c.58-.32,1.03-.77,1.35-1.35.32-.58,2.31-4.52,5.96-11.84,3.66-7.31,5.49-11.29,5.49-11.93s-.16-1.23-.49-1.81c-.33-.59-.78-1.04-1.37-1.36Z" fill="#ea7600" fill-rule="evenodd" stroke-width="0"/>
    </g>
  </g>
</svg>