<?xml version="1.0" encoding="UTF-8"?>
<svg id="Camada_2" data-name="Camada 2" xmlns="http://www.w3.org/2000/svg" width="332" height="254" viewBox="0 0 332 254">
  <g id="Camada_1-2" data-name="Camada 1">
    <path d="M164.84,4.78C74.89,5.68,2.5,57.98,3.14,121.59c.64,63.61,74.11,119.44,164.06,118.54,89.95-.9,162.29-58.2,161.65-121.81-.64-63.61-74.07-114.45-164.01-113.54Z" fill="#00bcff" stroke-width="0"/>
    <path d="M112.65,84.89c-.08.18-1.65,2.01-.61,3.46,2.55,3.53,10.35,5.49,18.2,3.46,4.67-1.21,10.62-6.55,16.39-11.71,5.5-5.63,11.82-10.18,18.7-13.47,4.4-1.83,9.22-2.02,13.73-.53,4.58,1.83,8.85,4.52,12.6,7.95,11.01,8.96,55.34,50.89,63,58.14,23.2-10.95,47.25-19.57,71.86-25.77-3.43-21.71-15.47-42.32-33.78-58.43-25.18,12-58.09,19.36-88.48,3.35-10.32-5.04-21.46-7.72-32.73-7.88-23.98.86-34.25,12.43-45.12,24.69l-13.76,16.73Z" fill="#fff" stroke-width="0"/>
    <path d="M252.93,136.82c-.52-.51-52.12-49.43-63.8-58.93-4.07-3.93-9.08-6.49-14.42-7.38-2.3-.18-4.6.09-6.82.79-6.81,2.91-13.09,7.15-18.56,12.49-6.41,5.77-12.46,11.19-18.12,12.65-6.83,1.62-13.97.51-20.14-3.14-1.45-.96-2.62-2.35-3.38-4.01-.42-1.27-.49-2.66-.2-3.98.29-1.32.93-2.51,1.84-3.42l13.94-17.01c1.62-1.82,3.25-3.65,4.93-5.45-4.34.77-8.63,1.88-12.82,3.33-4.83,1.83-9.87,2.92-14.97,3.24-5.15-.52-10.27-1.35-15.34-2.49-15.11-3.76-29.89-9.06-44.12-15.82C21.07,64.41,8.21,84.8,4.57,107.56c2.89.81,10.46,2.64,12.41,3.1,45.49,10.7,59.73,22.04,62.32,24.42,1.49-1.89,3.35-3.38,5.43-4.37,2.09-.98,4.35-1.43,6.62-1.3,2.27.12,4.48.82,6.48,2.02,1.99,1.21,3.71,2.89,5.03,4.94,3.03-2.77,6.84-4.29,10.77-4.32,2.21,0,4.41.4,6.5,1.19,2.03.7,3.9,1.86,5.49,3.42,1.59,1.56,2.86,3.47,3.73,5.62,1.97-1.01,4.12-1.54,6.3-1.55,2.6,0,5.18.61,7.57,1.76,3.32,1.68,6.03,4.55,7.68,8.15s2.15,7.71,1.42,11.66c.6-.08,1.2-.12,1.81-.12,4.77-.04,9.36,2.01,12.77,5.71s5.36,8.73,5.41,14c.03,3.28-.67,6.51-2.06,9.41,4.73,3.13,10.17,4.68,15.67,4.47,1.37-.01,2.72-.34,3.98-.96,1.25-.62,2.37-1.52,3.3-2.64.45-.71.91-1.54.46-2.13l-12.96-15.59s-2.13-2.18-1.44-3.04c.71-.88,2.03.36,2.96,1.2,6.57,5.95,14.62,14.95,14.62,14.95.14.1.68,1.24,3.62,1.8,1.76.32,3.56.24,5.3-.22,1.73-.47,3.36-1.31,4.79-2.49.81-.76,1.55-1.61,2.2-2.54-.04.05-.09.09-.15.13.88-1.38,1.32-3.05,1.23-4.74-.08-1.69-.68-3.3-1.7-4.57l-15.13-18.41s-2.16-2.17-1.44-3.05c.64-.77,2.03.37,2.97,1.22,4.77,4.33,11.53,11.67,18.01,18.56,2.15,1.58,4.7,2.36,7.27,2.23,2.58-.12,5.05-1.15,7.06-2.93,1.65-1.03,3.02-2.55,3.93-4.39.92-1.84,1.36-3.92,1.27-6.02-.35-2.62-1.49-5.04-3.23-6.87l-20.64-22.49s-2.18-2.02-1.43-3.05c.62-.87,2.02.36,2.95,1.2,6.56,5.95,24.35,23.62,24.35,23.62,2.09,1.46,4.52,2.2,6.99,2.12,2.47-.08,4.86-.97,6.86-2.56,1.29-.85,2.37-2.04,3.15-3.46.78-1.42,1.23-3.03,1.32-4.69.04-1.71-.25-3.42-.85-5-.61-1.58-1.51-3-2.66-4.16Z" fill="#fff" stroke-width="0"/>
    <path d="M154.18,166.58c-2.39.4-4.76,1-7.06,1.81-.25-.18.18-1.59.46-2.4.3-.81,4.33-14.72-5.88-19.43-2.29-1.33-4.9-1.8-7.45-1.36-2.55.45-4.9,1.79-6.7,3.83-.42.5-.61.46-.67-.16-.09-2.59-.9-5.09-2.34-7.14-1.43-2.05-3.41-3.56-5.66-4.31-3.18-1.05-6.58-.93-9.69.33-3.11,1.26-5.77,3.6-7.57,6.67-.35-2.73-1.53-5.26-3.34-7.16-1.81-1.9-4.14-3.08-6.63-3.34-2.49-.26-4.97.42-7.07,1.92-2.09,1.5-3.66,3.74-4.46,6.35-.8,2.61-.77,5.45.07,8.05.84,2.6,2.45,4.81,4.57,6.28,2.12,1.47,4.62,2.1,7.1,1.81,2.48-.3,4.8-1.51,6.57-3.44.06.06.09.18.06.41-.71,3.81-.16,7.77,1.55,11.17,1.72,3.4,4.48,6.01,7.79,7.35,1.79.74,3.72.95,5.6.61,1.88-.34,3.65-1.22,5.12-2.55.88-.7,1.02-.41.91.51-.35,2.85.19,8.94,7.95,12.32,1.92,1.02,4.09,1.32,6.18.87,2.09-.45,3.99-1.64,5.43-3.38.98-1.01,1.26-.85,1.32.7.15,3.03,1.11,5.94,2.75,8.38,1.64,2.44,3.89,4.29,6.47,5.33,2.58,1.04,5.38,1.22,8.04.52,2.67-.7,5.09-2.26,6.96-4.47,1.87-2.21,3.12-4.98,3.58-7.97.46-2.99.11-6.06-.99-8.84-1.11-2.78-2.93-5.14-5.23-6.79-2.3-1.65-5-2.51-7.74-2.49h0Z" fill="#fff" stroke-width="0"/>
    <path d="M164.76.01C73.1.93-.66,55.57,0,121.68c.02,1.71.05,6.43.05,7.03.7,70.14,66.22,126.29,167.23,125.28,101.63-1.02,165.41-58.45,164.7-128.6l-.07-7.04C331.26,52.24,256.42-.91,164.76.01ZM324.31,105.13c-23.86,6.09-47.12,14.71-69.46,25.75-15.9-15.03-52.63-49.64-62.56-57.71-3.86-3.51-8.23-6.27-12.93-8.14-2.05-.69-4.18-1.04-6.31-1.03-2.72.07-5.42.6-7.99,1.57-6.89,3.25-13.22,7.77-18.72,13.38l-.31.28c-5.67,5.08-11.52,10.34-15.98,11.48-1.95.51-3.95.78-5.95.8-2.01.21-4.04-.03-5.97-.69s-3.72-1.74-5.27-3.18c-.28-.39-.11-1.03.53-1.95l.08-.12,13.69-16.64c10.73-12.1,20.86-23.53,44.44-24.37.39-.01.79-.03,1.18-.03,10.72.38,21.27,3.02,31.09,7.81,13.2,7.12,27.69,10.81,42.37,10.78,16.05-.47,31.81-4.8,46.17-12.7,16.98,15.47,28.33,34.2,31.93,54.7ZM164.86,7.1c48.65-.49,92.34,14.49,121.85,38.48-12.7,6.58-26.51,10.18-40.54,10.59-13.73.01-27.29-3.45-39.64-10.12-10.67-5.25-22.17-8.13-33.84-8.48-.44,0-.89.02-1.33.03-14.05-.09-27.65,5.41-38.32,15.49-6.52.44-12.96,1.81-19.16,4.07-4.36,1.66-8.9,2.67-13.5,3-1.73.02-4.86-.13-5.14-.14-16.58-3.06-32.87-7.86-48.63-14.35C75.59,22.43,117.76,7.57,164.86,7.1ZM40.92,50.52c20.33,8.95,44.96,15.77,52.73,16.25,2.17.13,4.48.38,6.79.36,5.19-.33,10.32-1.44,15.24-3.29,2.93-.94,6.16-1.97,9.57-2.72-.9.99-1.8,2.01-2.7,3.03l-13.9,16.97c-1.06,1.06-1.8,2.45-2.13,3.99-.33,1.54-.23,3.15.29,4.62.84,1.86,2.14,3.43,3.75,4.5,4.58,2.8,9.75,4.19,14.98,4.04,2,0,4-.26,5.95-.75,5.89-1.52,12.02-7.03,18.51-12.86,5.38-5.24,11.54-9.4,18.2-12.31,1.66-.51,3.38-.78,5.1-.82.44,0,.88.02,1.32.07,5.16.88,9.99,3.37,13.93,7.17,11.65,9.48,63.26,58.4,63.76,58.88,1.03,1.05,1.84,2.34,2.38,3.76.54,1.43.81,2.96.77,4.51-.08,1.48-.48,2.92-1.18,4.19-.7,1.27-1.67,2.32-2.83,3.07-1.97,1.49-4.29,2.31-6.68,2.38-2.1.02-4.16-.61-5.95-1.84-.19-.17-17.88-17.75-24.39-23.65-.82-.93-1.88-1.55-3.04-1.76-.26,0-.51.06-.74.18-.23.12-.43.3-.59.53-1,1.39.15,3.29,1.51,4.54l20.68,22.54c1.54,1.63,2.56,3.77,2.89,6.1.07,1.9-.33,3.79-1.18,5.46-.84,1.66-2.08,3.04-3.59,3.96-2.11,1.68-4.62,2.63-7.23,2.72-2.08.02-4.12-.64-5.86-1.9l-2.96-3.17c-5.42-5.78-11.02-11.76-15.11-15.45-.83-.92-1.9-1.53-3.07-1.72-.24,0-.48.05-.7.16-.22.11-.42.26-.58.46-.46.57-.77,1.6.41,3.28.32.45.67.87,1.04,1.26l15.11,18.39c.87,1.07,1.39,2.44,1.47,3.87.08,1.44-.29,2.86-1.05,4.03l-.52.74c-.43.53-.89,1.03-1.38,1.5-2.09,1.74-4.65,2.66-7.27,2.63-.68,0-1.35-.05-2.02-.17-1.09-.08-2.13-.56-2.96-1.34l-.19-.21c-.82-.92-8.43-9.34-14.71-15.02-.78-.9-1.81-1.49-2.92-1.69-.25,0-.51.06-.74.18-.23.12-.44.29-.61.5-1.21,1.5.66,3.71,1.45,4.52l12.88,15.4c-.11.35-.26.67-.47.95-.45.7-1.97,2.43-6.59,3.11-.56.08-1.12.13-1.69.13-4.38-.27-8.66-1.62-12.51-3.96,1.33-3.21,1.91-6.75,1.67-10.27-.24-3.53-1.27-6.93-3.02-9.9-1.74-2.97-4.13-5.41-6.95-7.08-2.82-1.68-5.98-2.54-9.17-2.51-.22,0-.46.01-.69.02.5-4-.18-8.08-1.96-11.62-1.77-3.54-4.54-6.35-7.88-8-2.51-1.21-5.22-1.85-7.96-1.86-1.99,0-3.96.42-5.81,1.22-1.98-4.13-5.35-7.24-9.39-8.63-2.2-.84-4.51-1.26-6.83-1.26-3.81.01-7.51,1.37-10.58,3.87-1.42-1.94-3.2-3.52-5.21-4.64-2.01-1.13-4.22-1.77-6.47-1.88-2.25-.12-4.5.29-6.6,1.2-2.1.91-4,2.3-5.57,4.08-4-3.31-19.83-14.19-62.02-24.33-2.01-.48-6.59-1.88-9.47-2.78,3.74-20.92,15.55-40.11,33.19-55.94h0ZM120.19,170.84l-.46-.45h-.46c-.47.05-.92.25-1.28.59-1.79,1.56-3.99,2.44-6.26,2.54-1.2,0-2.39-.24-3.52-.72-3.1-1.24-5.69-3.69-7.29-6.88-1.6-3.19-2.09-6.91-1.4-10.47.05-.26.03-.53-.05-.78-.08-.25-.21-.47-.4-.65l-.69-.62-.64.68c-1.85,2.03-4.35,3.18-6.97,3.21-1.95.03-3.87-.57-5.52-1.71-1.65-1.15-2.97-2.79-3.8-4.75-.83-1.95-1.13-4.13-.87-6.26.26-2.13,1.08-4.14,2.35-5.77,1.27-1.63,2.94-2.83,4.81-3.43,1.87-.61,3.86-.61,5.73,0,1.87.61,3.54,1.8,4.82,3.44,1.27,1.63,2.1,3.64,2.36,5.77l.38,3,1.47-2.56c1.65-2.9,4.13-5.12,7.05-6.3,2.92-1.18,6.11-1.26,9.07-.23,2.05.69,3.85,2.07,5.16,3.95,1.3,1.88,2.04,4.16,2.12,6.52.12,1.46,1.06,1.52,1.25,1.52.23-.02.45-.09.65-.21.2-.12.38-.28.52-.48.95-1.12,2.1-2.01,3.38-2.62,1.28-.61,2.65-.93,4.04-.93,1.93.03,3.83.48,5.6,1.34,9.58,4.43,5.39,17.87,5.34,18-.8,2.23-.82,3.21-.05,3.77l.38.19h.28c.63-.09,1.25-.27,1.84-.55,1.62-.73,3.33-1.16,5.07-1.29h0c1.71-.02,3.4.34,4.99,1.05,1.59.71,3.03,1.75,4.25,3.08,1.22,1.32,2.19,2.9,2.87,4.64.67,1.74,1.02,3.61,1.04,5.49.02,1.89-.3,3.76-.94,5.51-.64,1.75-1.58,3.35-2.77,4.69-1.19,1.35-2.62,2.42-4.19,3.16-1.57.74-3.26,1.13-4.97,1.14-3.35.06-6.59-1.33-9.04-3.87-2.45-2.54-3.91-6.02-4.08-9.72-.03-.66-.11-2.41-1.45-2.39-.61.08-1.17.42-1.57.94-1.64,1.97-3.92,3.14-6.34,3.25-1.45-.02-2.88-.35-4.21-.97-7.44-3.25-7.6-8.87-7.32-11.14.07-.29.08-.6.03-.89-.05-.3-.16-.58-.32-.82ZM167.13,232.82c-88.14.88-160.09-48.93-160.71-111.26-.01-2.49.09-4.98.31-7.46.71.18,7.72,1.96,9.18,2.3,43.09,10.12,57.41,20.96,59.83,23.01-.99,2.71-1.36,5.66-1.08,8.58.28,2.92,1.22,5.71,2.71,8.13,1.49,2.42,3.51,4.4,5.86,5.77,2.35,1.36,4.97,2.06,7.62,2.03.99,0,1.98-.12,2.95-.33.67,3.52,2.16,6.79,4.31,9.49,2.16,2.7,4.91,4.73,7.99,5.9,1.84.77,3.79,1.17,5.75,1.17,1.24,0,2.47-.19,3.66-.54,1.51,3.42,3.85,6.31,6.75,8.36,2.9,2.05,6.26,3.18,9.7,3.25,1.68-.02,3.34-.36,4.91-1.02,1.22,3.21,3.15,6.04,5.61,8.22,2.46,2.18,5.37,3.66,8.47,4.29,3.1.63,6.29.39,9.29-.68,3-1.08,5.7-2.96,7.87-5.49,4.93,3.11,10.47,4.87,16.13,5.15.81-.01,1.62-.08,2.43-.2,2.09-.09,4.14-.67,6.01-1.71,1.87-1.04,3.52-2.5,4.83-4.3.25-.39.47-.79.66-1.21,1.68.55,3.41.83,5.16.84,3.77-.12,7.41-1.6,10.35-4.21,3.11-2.3,5.28-5.87,6.03-9.92,0-.04.01-.09.01-.14,1.15.25,2.31.36,3.48.35,3.82-.09,7.52-1.43,10.64-3.85,2.38-1.56,4.33-3.8,5.65-6.48,1.32-2.68,1.96-5.71,1.86-8.77,1.16.26,2.34.38,3.53.37,3.56-.08,7.02-1.3,9.96-3.5,1.96-1.35,3.59-3.19,4.78-5.38,1.19-2.19,1.89-4.65,2.05-7.2.2-3.54-.61-7.07-2.31-10.08,21.35-9.89,43.41-17.78,65.96-23.58.15,1.86.24,3.74.26,5.63.62,62.33-70.31,113.57-158.44,114.46h0Z" fill="#0a0080" stroke-width="0"/>
  </g>
</svg>