<?xml version="1.0" encoding="UTF-8"?>
<svg id="Camada_2" data-name="Camada 2" xmlns="http://www.w3.org/2000/svg" width="387.06" height="125.43" viewBox="0 0 387.06 125.43">
  <g id="Camada_1-2" data-name="Camada 1">
    <g>
      <path d="m168.57,7.38c5.21.13,7.84,2.67,7.87,7.63l-.05,39.02h30.9c5.21.03,7.82,2.66,7.82,7.87s-2.56,7.66-7.68,7.73h-38.87c-5.15,0-7.74-2.51-7.77-7.53V15.25c.03-5.15,2.62-7.77,7.77-7.87h0Z" fill="#d14124" stroke-width="0"/>
      <path d="m252.13,7.48c5.25,0,10.35,1.34,15.3,4.03s8.84,6.53,11.66,11.52c2.82,4.99,4.23,10.19,4.23,15.6s-1.37,10.54-4.11,15.47-6.58,8.78-11.54,11.52c-4.96,2.74-10.14,4.11-15.55,4.11s-10.54-1.37-15.47-4.11-8.78-6.58-11.52-11.52c-2.74-4.94-4.11-10.1-4.11-15.47s1.38-10.61,4.15-15.6,6.64-8.83,11.61-11.52c4.97-2.69,10.08-4.03,15.33-4.03h0Zm.1,15.5c-2.66,0-5.22.66-7.7,1.99-2.48,1.33-4.41,3.24-5.81,5.73s-2.09,5.1-2.09,7.82.69,5.31,2.06,7.77,3.3,4.37,5.76,5.73,5.05,2.04,7.77,2.04,5.27-.68,7.75-2.04,4.4-3.27,5.76-5.73c1.36-2.46,2.04-5.05,2.04-7.77s-.7-5.33-2.09-7.82-3.34-4.41-5.83-5.73c-2.49-1.33-5.04-1.99-7.63-1.99Z" fill="#d14124" stroke-width="0"/>
      <path d="m309.86,7.38c5.18.1,7.77,2.72,7.77,7.87v35.13c0,7.61-1.29,12.72-3.86,15.33-2.58,2.61-7.73,3.91-15.47,3.91-5.15-.06-7.74-2.64-7.77-7.73,0-5.21,2.59-7.84,7.77-7.87,2.53.06,3.77-1.18,3.74-3.74l-.05-35.27c.06-4.96,2.69-7.5,7.87-7.63h0Z" fill="#d14124" stroke-width="0"/>
      <path d="m332.69,69.67c-1.33,0-2.61-.33-3.84-1s-2.19-1.62-2.89-2.87c-.7-1.25-1.04-2.55-1.04-3.91s3.87-9.82,11.61-25.39c7.74-15.56,11.95-23.96,12.63-25.19s1.64-2.19,2.89-2.89,2.53-1.04,3.86-1.04,2.66.35,3.89,1.04c1.23.7,2.19,1.66,2.87,2.89s4.92,9.63,12.71,25.19,11.69,24.03,11.69,25.39-.35,2.66-1.04,3.91-1.67,2.2-2.92,2.87-2.52,1-3.81,1h-46.59Zm33.91-15.64l-10.69-21.91-10.69,21.91h21.38Z" fill="#d14124" stroke-width="0"/>
      <path d="m191.76,82.49c.74,0,1.46.19,2.17.58.71.39,1.26.94,1.66,1.65.4.71.6,1.44.6,2.2s-2.22,5.6-6.66,14.48c-4.44,8.88-6.85,13.66-7.24,14.36-.39.7-.93,1.25-1.63,1.63s-1.44.58-2.21.58-1.49-.19-2.2-.58c-.71-.39-1.26-.93-1.65-1.63-.39-.7-2.79-5.49-7.2-14.36s-6.62-13.7-6.62-14.48.2-1.49.6-2.2c.4-.71.95-1.26,1.65-1.65s1.43-.58,2.19-.58,1.46.19,2.17.58c.71.39,1.26.94,1.66,1.65s3.53,7.11,9.4,19.19c5.92-12.09,9.08-18.48,9.48-19.19s.95-1.26,1.65-1.65,1.43-.58,2.19-.58h0Z" fill="#ea7600" stroke-width="0"/>
      <path d="m204.02,82.57c2.95.02,4.46,1.48,4.51,4.37v26.63c-.04,2.93-1.52,4.43-4.46,4.48-2.95-.07-4.43-1.57-4.43-4.48v-26.6c-.02-2.93,1.44-4.4,4.37-4.4h0Z" fill="#ea7600" stroke-width="0"/>
      <path d="m216.9,82.54h15.56c2.88,0,5.43,1.12,7.67,3.35,2.23,2.23,3.34,4.79,3.32,7.67,0,3.06-.56,5.65-1.67,7.75-1.12,2.1-2.79,3.19-5.02,3.27l5.45,5.54c.89.87,1.33,2.01,1.33,3.43-.06,2.93-1.53,4.4-4.43,4.4h-.11c-1.48,0-2.92-.72-4.35-2.16l-8.86-10.99c-1.49-1.59-2.25-3.11-2.27-4.57,0-2.99,1.49-4.47,4.48-4.46l3.13-.03c2.34.04,3.5-.67,3.46-2.13,0-1.46-1.15-2.19-3.46-2.19h-9.77v22.09c.02,2.95-1.47,4.43-4.46,4.43s-4.43-1.46-4.43-4.37v-26.65c.02-2.9,1.49-4.35,4.43-4.37h0Z" fill="#ea7600" stroke-width="0"/>
      <path d="m251.47,82.49l22.42.06c2.75.04,4.13,1.47,4.15,4.29,0,3.01-1.49,4.54-4.48,4.59h-6.62l.03,22.11c-.04,2.9-1.52,4.36-4.46,4.4-2.95,0-4.43-1.43-4.43-4.29l.03-22.23h-6.64c-2.95,0-4.43-1.49-4.43-4.46.02-2.93,1.49-4.43,4.43-4.48h0Z" fill="#ea7600" stroke-width="0"/>
      <path d="m286.17,82.49c2.95,0,4.44,1.43,4.46,4.29l-.03,13.48c.04,5.9,2.28,8.87,6.73,8.88,4.43-.04,6.63-3.01,6.62-8.91v-13.31c.04-2.93,1.52-4.42,4.46-4.46,2.93.07,4.41,1.57,4.43,4.48v13.31c-.02,11.79-5.19,17.69-15.5,17.69-10.37.07-15.56-5.82-15.58-17.69v-13.34c.02-2.92,1.49-4.39,4.43-4.43h0Z" fill="#ea7600" stroke-width="0"/>
      <path d="m321.13,117.97c-.76,0-1.49-.19-2.19-.57-.7-.38-1.25-.92-1.65-1.63-.4-.71-.6-1.45-.6-2.23s2.21-5.6,6.62-14.46,6.81-13.65,7.2-14.35.94-1.25,1.65-1.65,1.44-.6,2.2-.6,1.51.2,2.21.6c.7.4,1.25.95,1.63,1.65s2.8,5.48,7.24,14.35,6.66,13.69,6.66,14.46-.2,1.52-.6,2.23c-.4.71-.95,1.25-1.66,1.63-.71.38-1.43.57-2.17.57h-26.54Zm19.32-8.91l-6.09-12.48-6.09,12.48h12.18Z" fill="#ea7600" stroke-width="0"/>
      <path d="m360.54,82.49c2.97.07,4.47,1.52,4.48,4.35l-.03,22.23h17.6c2.97.02,4.46,1.51,4.46,4.48s-1.46,4.36-4.37,4.4h-22.14c-2.93,0-4.41-1.43-4.43-4.29v-26.68c.02-2.93,1.49-4.43,4.43-4.48h0Z" fill="#ea7600" stroke-width="0"/>
    </g>
    <g>
      <path d="m62.72,0C28.08,0,0,28.08,0,62.72s28.08,62.72,62.72,62.72c14.61,0,28.05-4.99,38.71-13.37-8.12,4.52-17.47,7.1-27.42,7.1-31.17,0-56.44-25.27-56.44-56.44S42.83,6.27,74.01,6.27c9.95,0,19.3,2.57,27.42,7.1C90.76,4.99,77.32,0,62.72,0h0Z" fill="#d14124" fill-rule="evenodd" stroke-width="0"/>
      <path d="m76.34,112.89c27.71,0,50.17-22.46,50.17-50.17S104.05,12.54,76.34,12.54c-11.69,0-22.44,3.99-30.97,10.69,6.5-3.62,13.97-5.68,21.94-5.68,24.94,0,45.16,20.22,45.16,45.16s-20.22,45.16-45.16,45.16c-7.96,0-15.44-2.06-21.94-5.68,8.53,6.7,19.28,10.69,30.97,10.69h0Z" fill="#d14124" fill-rule="evenodd" stroke-width="0"/>
      <path d="m38.4,48.1c2.45.06,3.68,1.25,3.69,3.58l-.02,18.31h14.51c2.45.01,3.67,1.25,3.67,3.7s-1.2,3.6-3.6,3.63h-18.24c-2.42,0-3.63-1.18-3.65-3.54v-21.99c.01-2.42,1.23-3.65,3.65-3.69h0Z" fill="#ea7600" fill-rule="evenodd" stroke-width="0"/>
      <path d="m89.9,48.58c-.59-.32-1.18-.48-1.79-.48s-1.22.16-1.8.48c-.58.32-1.03.77-1.36,1.36-.33.59-2.93,5.86-7.81,15.82-4.84-9.96-7.42-15.23-7.74-15.82-.33-.59-.78-1.04-1.37-1.36-.59-.32-1.18-.48-1.79-.48s-1.22.16-1.8.48c-.58.32-1.03.77-1.36,1.36-.33.59-.49,1.19-.49,1.81s1.82,4.62,5.45,11.93,5.61,11.26,5.93,11.84c.32.58.77,1.03,1.36,1.35.59.32,1.19.48,1.81.48s1.25-.16,1.82-.48c.58-.32,1.03-.77,1.35-1.35.32-.58,2.31-4.52,5.96-11.84,3.66-7.31,5.49-11.29,5.49-11.93s-.16-1.23-.49-1.81c-.33-.59-.78-1.04-1.37-1.36Z" fill="#ea7600" fill-rule="evenodd" stroke-width="0"/>
    </g>
  </g>
</svg>